<svg version="1.1" id="Layer_1" xmlns="http://www.w3.org/2000/svg" xmlns:xlink="http://www.w3.org/1999/xlink" x="0px" y="0px"
	 viewBox="0 0 595.28 155.91" style="enable-background:new 0 0 595.28 155.91;" xml:space="preserve">
<style type="text/css">
	.st0{fill-rule:evenodd;clip-rule:evenodd;fill:#808285;}
	.st1{fill-rule:evenodd;clip-rule:evenodd;fill:#262262;}
	.st2{fill-rule:evenodd;clip-rule:evenodd;fill:#ED1C24;}
</style>
<g>
	<path class="st0" d="M37.52,47.45h-9.98l-3.32,10.63H13.1l14.7-47.46h10.23l14.8,47.46H40.79L37.52,47.45z M35.91,39.69
		L32.61,28.6h-0.21l-3.26,11.09H35.91z"/>
	<path class="st0" d="M57.6,0.62h29.28v7.87H68.72v12.23h17.15v7.81H68.72v13.62h18.5v7.81H57.6V0.62z"/>
	<path class="st0" d="M109.28,29.98l-12.7-29.36h11.2l6.8,16.51h0.21l6.75-16.51h10.99l-12.8,29.36v19.49h-10.45V29.98z"/>
	<path class="st0" d="M141.16,0.62h30.07v7.87h-9.82v38.98h-10.45V8.49h-9.8V0.62z"/>
	<path class="st0" d="M180.12,0.62h10.45v49.47h-10.45V0.62z"/>
	<path class="st0" d="M199.17,0.62h10.99l11.72,21.05h0.21V0.62h9.72v49.47h-10.09L210,27.83h-0.21v22.26h-10.55V0.62z"/>
	<path class="st0" d="M239.9,28.09c0-16.46,10.99-28.09,27.81-28.09c16.94,0,27.81,11.63,27.81,28.09
		c0,16.46-10.88,28.14-27.81,28.14C250.89,56.23,239.9,44.55,239.9,28.09z M284.4,28.09c0-10.99-7.23-20.28-16.78-20.28
		s-16.73,9.29-16.73,20.28s7.18,20.28,16.73,20.28S284.4,39.08,284.4,28.09z"/>
	<path class="st0" d="M304.09,0.62h30.07v7.87h-9.82v38.98h-10.45V8.49h-9.8V0.62z"/>
	<path class="st0" d="M336.19,0.62h10.45v49.47h-10.45V0.62z"/>
	<path class="st0" d="M369.3,27.28c0,11.52-8.52,20.59-20.07,20.59h-12.06V0.62h12.06C360.78,0.62,369.3,9.69,369.3,21.21v-0.11
		c0,3.37-1.07,6.48-2.94,9.08C368.17,23.3,369.3,25.17,369.3,27.28z M358.53,27.71c0-6.16-4.52-10.4-10.77-10.4h-1.5v20.7h1.5
		C354.01,38.01,358.53,33.78,358.53,27.71z M358.31,11.19c0-6.1-4.41-10.34-10.55-10.34h-1.71v20.59h1.71
		C353.9,21.44,358.31,17.29,358.31,11.19z"/>
	<path class="st0" d="M372.49,0.62h10.45v32.22l14.38-16.15h12.6l-16.4,18.06l17.82,31.4h-12.11l-11.83-21.74h-0.21l-4.24,4.45
		v17.29h-10.45V0.62z"/>
	<path class="st0" d="M428.14,0.62h10.45v39.08h15.24v8.29h-25.69V0.62z"/>
	<path class="st0" d="M456.9,0.62h10.45v49.47h-10.45V0.62z"/>
	<path class="st0" d="M470.94,8.49v-7.87h41.09v7.87H497.6v41.6h-10.45v-41.6H470.94z"/>
	<path class="st0" d="M31.29,118.84l-11.88,26.44h-9.92l20.47-46.1h9.15l20.37,46.1h-9.87l-11.99-26.44H31.29z M43.14,111.45
		L37.7,99.69h-0.21l-5.38,11.76H43.14z"/>
	<path class="st0" d="M72.08,98.2h10.45v47.08H72.08V98.2z"/>
	<path class="st0" d="M89.76,98.2h28.19v7.4h-17.74v12.56h16.78v7.35H99.99v12.35h18.16v7.4H89.76V98.2z"/>
	<path class="st0" d="M125.17,117.89c0-11.76,7.92-20.32,19.34-20.32c11.52,0,19.34,8.56,19.34,20.32s-7.81,20.32-19.34,20.32
		C133.09,138.21,125.17,129.65,125.17,117.89z M154.55,117.89c0-6.93-4.52-12.93-9.1,-12.93s-9.1,6-9.1,12.93
		c0,6.93,4.52,12.93,9.1,12.93S154.55,124.82,154.55,117.89z"/>
	<path class="st0" d="M171.18,98.2h10.45v32.22l14.38-16.15h12.6l-16.4,18.06l17.82,31.4h-12.11l-11.83-21.74h-0.21l-4.24,4.45
		v17.29h-10.45V98.2z"/>
	<path class="st0" d="M227.12,117.89c0-11.76,7.92-20.32,19.34-20.32c11.52,0,19.34,8.56,19.34,20.32s-7.81,20.32-19.34,20.32
		C235.04,138.21,227.12,129.65,227.12,117.89z M256.51,117.89c0-6.93-4.52-12.93-9.1,-12.93c-4.57,0-9.1,6-9.1,12.93
		c0,6.93,4.52,12.93,9.1,12.93C251.99,130.82,256.51,124.82,256.51,117.89z"/>
	<path class="st0" d="M273.5,98.2h10.45v47.08h-10.45V98.2z"/>
	<path class="st0" d="M291,98.2h28.19v7.4H301.4v12.56h16.78v7.35H301.4v12.35h18.16v7.4H291V98.2z"/>
	<path class="st0" d="M327.99,98.2h10.45v47.08h-10.45V98.2z"/>
	<path class="st0" d="M345.52,98.2h28.19v7.4h-17.74v12.56h16.78v7.35h-16.78v12.35h18.16v7.4h-28.52V98.2z"/>
	<path class="st0" d="M381.56,98.2h10.45v47.08h-10.45V98.2z"/>
	<path class="st0" d="M400.61,98.2h10.99l11.72,21.05h0.21V98.2h9.72v47.08h-10.09l-11.72-22.31h-0.21v22.31h-10.55V98.2z"/>
	<path class="st0" d="M441.34,117.89c0-11.76,7.92-20.32,19.34-20.32c11.52,0,19.34,8.56,19.34,20.32s-7.81,20.32-19.34,20.32
		C449.26,138.21,441.34,129.65,441.34,117.89z M470.74,117.89c0-6.93-4.52-12.93-9.1,-12.93s-9.1,6-9.1,12.93
		c0,6.93,4.52,12.93,9.1,12.93S470.74,124.82,470.74,117.89z"/>
	<path class="st0" d="M510.12,124.93h14.8l-7.35-12.35L510.12,124.93z M492.35,145.28l19.5-32.6h0.21l19.5,32.6h-11.41l-8.03-13.63
		h-11.52l-8.24,13.63H492.35z M509.8,98.2h10.45v8.34h-10.45V98.2z"/>
	<path class="st0" d="M542.41,98.2h10.45v47.08h-10.45V98.2z"/>
	<path class="st0" d="M559.78,98.2h10.45v47.08h-10.45V98.2z"/>
</g>
<g>
	<polygon class="st1" points="584.27,0 523.63,0 553.95,51.64 	"/>
	<polygon class="st2" points="553.95,104.26 523.63,155.91 584.27,155.91 	"/>
</g>
</svg>